<?xml version="1.0" encoding="utf-8" ?>
<svg baseProfile="full" height="200mm" version="1.1" viewBox="0,0,200,200" width="200mm" xmlns="http://www.w3.org/2000/svg" xmlns:ev="http://www.w3.org/2001/xml-events" xmlns:xlink="http://www.w3.org/1999/xlink"><defs /><rect fill="#1a1a1a" height="200" width="200" x="0" y="0" /><text alignment-baseline="middle" fill="#e1ed5e" style="dominant-baseline: central; font-size:9.0px; font-family:Arial;" text-anchor="middle" x="100.0" y="100.0">2025</text><line stroke="#e1ed5e" stroke-width="0.3" x1="100.0" x2="100.0" y1="15.0" y2="10.0" /><path d="M 100.0 14.0 a86.0,86.0 0 0,1 42.46469731375804,11.215312516191453" fill="none" id="id109" stroke="none" /><text fill="#e1ed5e" style="font-size:6.75px; font-family:Arial;" text-anchor="middle"><textPath startOffset="22.20632615414155" xlink:href="#id109">January</textPath></text><path d="M 100.0 79.0 l 0.0 -30.234624955563454 a51.234624955563454,51.234624955563454 0 0,0 0.8819198468707296,0.007590962554048886 l -0.5204393675982012 30.230145369617965" fill="#97ff23" stroke="none" /><path d="M 101.44485096284872 79.0497635885617 l 0.22098069071470614 -3.204204331018439 a24.211815352816235,24.211815352816235 0 0,0 0.41553218030964095,0.032253294592206834 l -0.27610306038668825 3.199925774237768" fill="#ff0000" stroke="none" /><path d="M 106.40334571778207 80.00007090966166 l 5.141290002431677 -16.05807963732976 a37.86104339974038,37.86104339974038 0 0,0 0.6189688841407721,0.20406430943219236 l -5.416941708814867 15.967201603638333" fill="#ffc212" stroke="none" /><line stroke="#e1ed5e" stroke-width="0.3" x1="143.23703022742887" x2="145.7803849466894" y1="26.81831364943548" y2="22.513508569990506" /><path d="M 143.74570117128098 25.957352633546492 a86.0,86.0 0 0,1 28.547481713284135,27.462654790039103" fill="none" id="id110" stroke="none" /><text fill="#e1ed5e" style="font-size:6.75px; font-family:Arial;" text-anchor="middle"><textPath startOffset="19.985693538727396" xlink:href="#id110">February</textPath></text><path d="M 116.15771136456269 86.58626213691792 l 11.790085222162011 -9.78784117287388 a36.32344427246199,36.32344427246199 0 0,0 0.39523627567790925,0.48451294071783635 l -11.95681998991633 9.583444062547944" fill="#ffad10" stroke="none" /><path d="M 117.45458315368197 88.32363383020206 l 6.003175771841306 -4.015866656712003 a28.222555250886884,28.222555250886884 0 0,0 0.2666404724082296,0.40611173262905054 l -6.071412879607461 3.911936860105279" fill="#ff3c05" stroke="none" /><line stroke="#e1ed5e" stroke-width="0.3" x1="172.23445277983987" x2="176.4835382374775" y1="55.19839476539836" y2="52.563006222186495" /><path d="M 173.08426987136738 54.67131705675599 a86.0,86.0 0 0,1 12.851231095245387,41.99856678651699" fill="none" id="id111" stroke="none" /><text fill="#e1ed5e" style="font-size:6.75px; font-family:Arial;" text-anchor="middle"><textPath startOffset="22.20632615414155" xlink:href="#id111">March</textPath></text><path d="M 118.3937258080291 89.86733742301442 l 13.078764561265478 -7.204777846872772 a35.93194248153275,35.93194248153275 0 0,0 0.29377254778224526,0.5443159147228501 l -13.200845208266188 6.978580948817464" fill="#ffa80f" stroke="none" /><path d="M 118.73160827565052 90.50648371742162 l 20.02116456836187 -10.147086626459153 a43.445721144091024,43.445721144091024 0 0,0 0.33233905151507737,0.6699752482505863 l -20.192863632830356 9.800951789709616" fill="#f4ff19" stroke="none" /><path d="M 119.34039704204932 91.81776055985345 l 15.621231705131066 -6.608791840389619 a37.96169241482089,37.96169241482089 0 0,0 0.2494233467781915,0.6039984183057912 l -15.732676738795456 6.338918851630525" fill="#ffc312" stroke="none" /><path d="M 120.08093135843002 93.85539295169968 l 30.64493527434247 -9.377109154968677 a53.04749965399542,53.04749965399542 0 0,0 0.259665244638083,0.8754621184118303 l -30.801806416092255 8.848217649810316" fill="#83ff25" stroke="none" /><path d="M 120.28053869075195 94.5502522615342 l 16.855453745156492 -4.529365433984712 a38.45340861235093,38.45340861235093 0 0,0 0.16627193114721706,0.640713577299629 l -16.93092200817401 4.2385554311362315" fill="#ffca12" stroke="none" /><path d="M 120.67395015179393 96.31383870115 l 62.02185045538181 -11.058483896549978 a84.0,84.0 0 0,0 0.2415525539191079,1.4256568467366484 l -62.20301487082114 9.98924126149749" fill="#4dd2ff" stroke="none" /><path d="M 120.73433829027371 96.67025291283417 l 4.4423513556211045 -0.713401425184873 a25.49926962519968,25.49926962519968 0 0,0 0.06586595708425501,0.43397436178095167 l -4.453973206144659 0.6368279510118392" fill="#ff1302" stroke="none" /><line stroke="#e1ed5e" stroke-width="0.3" x1="184.98032266829074" x2="189.97916517819016" y1="98.17113171792111" y2="98.06355123074" /><path d="M 185.9800911702706 98.14961562048488 a86.0,86.0 0 0,1 -9.607161424134198,41.387399972396054" fill="none" id="id112" stroke="none" /><text fill="#e1ed5e" style="font-size:6.75px; font-family:Arial;" text-anchor="middle"><textPath startOffset="21.466115282336823" xlink:href="#id112">April</textPath></text><path d="M 120.92983693683757 101.71520430193887 l 16.474503930024923 1.3500888754347427 a37.52973138656461,37.52973138656461 0 0,0 -0.05830583990950417,0.643400084854101 l -16.448823493838344 -1.6334703488374143" fill="#ffbd11" stroke="none" /><path d="M 120.64145759157962 103.86396538481128 l 17.142890946698145 3.2090532812303794 a38.44066320333492,38.44066320333492 0 0,0 -0.12734854835790155,0.6493475044660677 l -17.08511246536458 -3.5036645127643924" fill="#ffca12" stroke="none" /><path d="M 119.9155931802556 106.66101706037122 l 5.50197062223623 1.8402022901688153 a26.801553688167772,26.801553688167772 0 0,0 -0.15010040279503808,0.43626203096349436 l -5.469479388497961 -1.93463702422161" fill="#ff2703" stroke="none" /><line stroke="#e1ed5e" stroke-width="0.3" x1="174.80103733775053" x2="179.2010983576182" y1="140.37084112569926" y2="142.7455964860345" /><path d="M 175.68104954172406 140.8457921977663 a86.0,86.0 0 0,1 -30.038265399797805,32.042727171017184" fill="none" id="id113" stroke="none" /><text fill="#e1ed5e" style="font-size:6.75px; font-family:Arial;" text-anchor="middle"><textPath startOffset="22.206326154141568" xlink:href="#id113">May</textPath></text><path d="M 118.48025628344425 109.97397251340804 l 6.604065549210556 3.5642778570977076 a28.504515868519885,28.504515868519885 0 0,0 -0.2367552383158886,0.4297795277509996 l -6.541733901443158 -3.6774279032465125" fill="#ff4006" stroke="none" /><path d="M 117.55443506779139 111.5257021239791 l 14.020742300100766 9.205588142482252 a37.772717957887586,37.772717957887586 0 0,0 -0.3615332861777188,0.5404432093552685 l -13.860205908512325 -9.445568266043328" fill="#ffc111" stroke="none" /><path d="M 115.56566222782051 114.09645910891815 l 8.775217990785261 7.946947567566976 a32.83885241176103,32.83885241176103 0 0,0 -0.3830473740742482,0.4157222717824205 l -8.637124208715292 -8.096821094150732" fill="#ff7e0b" stroke="none" /><path d="M 111.7513745106137 117.40417183066458 l 10.138806400699181 15.015905466738042 a39.118300478159426,39.118300478159426 0 0,0 -0.5613016036362855,0.37200009604918394 l -9.878830098322931 -15.188203583878545" fill="#ffd213" stroke="none" /><line stroke="#e1ed5e" stroke-width="0.3" x1="143.8653032363475" x2="146.44561519142675" y1="172.8068346515853" y2="177.08958963109032" /><path d="M 144.38136562736335 173.6633856474863 a86.0,86.0 0 0,1 -40.68145358897372,12.25698825130547" fill="none" id="id114" stroke="none" /><text fill="#e1ed5e" style="font-size:6.75px; font-family:Arial;" text-anchor="middle"><textPath startOffset="21.466115282336833" xlink:href="#id114">June</textPath></text><path d="M 104.83641907484287 120.43548508189849 l 2.7783791124956307 11.739579227242118 a33.06387628109003,33.06387628109003 0 0,0 -0.5549690558119764,0.12630915027868414 l -2.575889907290792 -11.785665111098487" fill="#ff810b" stroke="none" /><path d="M 103.7750983002368 120.6578951692458 l 1.703146267217514 9.319867788307569 a30.47420934954838,30.47420934954838 0 0,0 -0.5168295715913204,0.08985744577964187 l -1.5424677241541436 -9.347803812608216" fill="#ff5c08" stroke="none" /><line stroke="#e1ed5e" stroke-width="0.3" x1="102.19456741930631" x2="102.32365962044197" y1="184.97166512339345" y2="189.96999836594603" /><path d="M 102.22038585953345 185.97133177190398 a86.0,86.0 0 0,1 -42.740103519485714,-10.115201625700543" fill="none" id="id115" stroke="none" /><text fill="#e1ed5e" style="font-size:6.75px; font-family:Arial;" text-anchor="middle"><textPath startOffset="22.20632615414155" xlink:href="#id115">July</textPath></text><line stroke="#e1ed5e" stroke-width="0.3" x1="58.666819895761336" x2="56.23545636021788" y1="174.27360380694188" y2="178.64263932499728" /><path d="M 58.180547188652646 175.14741091055294 a86.0,86.0 0 0,1 -31.652253787137756,-30.449443065178592" fill="none" id="id116" stroke="none" /><text fill="#e1ed5e" style="font-size:6.75px; font-family:Arial;" text-anchor="middle"><textPath startOffset="22.20632615414155" xlink:href="#id116">August</textPath></text><line stroke="#e1ed5e" stroke-width="0.3" x1="26.63291911575756" x2="22.317208475507996" y1="142.92168965132927" y2="145.44649492493687" /><path d="M 25.769776987707644 143.4266507060508 a86.0,86.0 0 0,1 -11.730757126820373,-40.83630448921669" fill="none" id="id117" stroke="none" /><text fill="#e1ed5e" style="font-size:6.75px; font-family:Arial;" text-anchor="middle"><textPath startOffset="21.46611528233685" xlink:href="#id117">September</textPath></text><line stroke="#e1ed5e" stroke-width="0.3" x1="15.007084014347285" x2="10.007500721073583" y1="101.09737516637583" y2="101.16192664675087" /><path d="M 14.007167355692545 101.11028546245083 a86.0,86.0 0 0,1 10.666146001902534,-42.60595125391555" fill="none" id="id118" stroke="none" /><text fill="#e1ed5e" style="font-size:6.75px; font-family:Arial;" text-anchor="middle"><textPath startOffset="22.20632615414155" xlink:href="#id118">October</textPath></text><line stroke="#e1ed5e" stroke-width="0.3" x1="26.266209847984243" x2="21.928928074336255" y1="57.711370442889674" y2="55.22380399835377" /><path d="M 25.398753493254645 57.213857153982495 a86.0,86.0 0 0,1 29.58750427330803,-30.492523968695096" fill="none" id="id119" stroke="none" /><text fill="#e1ed5e" style="font-size:6.75px; font-family:Arial;" text-anchor="middle"><textPath startOffset="21.46611528233685" xlink:href="#id119">November</textPath></text><line stroke="#e1ed5e" stroke-width="0.3" x1="56.762969772571076" x2="54.21961505331055" y1="26.818313649435495" y2="22.513508569990535" /><path d="M 56.25429882871897 25.957352633546506 a86.0,86.0 0 0,1 42.265352541879196,-11.944610805530505" fill="none" id="id120" stroke="none" /><text fill="#e1ed5e" style="font-size:6.75px; font-family:Arial;" text-anchor="middle"><textPath startOffset="22.20632615414155" xlink:href="#id120">December</textPath></text></svg>