<?xml version="1.0" encoding="utf-8" ?>
<svg baseProfile="full" height="200mm" version="1.1" viewBox="0,0,200,200" width="200mm" xmlns="http://www.w3.org/2000/svg" xmlns:ev="http://www.w3.org/2001/xml-events" xmlns:xlink="http://www.w3.org/1999/xlink"><defs /><rect fill="#1a1a1a" height="200" width="200" x="0" y="0" /><text alignment-baseline="middle" fill="#e1ed5e" style="dominant-baseline: central; font-size:9.0px; font-family:Arial;" text-anchor="middle" x="100.0" y="100.0">2024</text><line stroke="#e1ed5e" stroke-width="0.3" x1="100.0" x2="100.0" y1="15.0" y2="10.0" /><path d="M 100.0 14.0 a86.0,86.0 0 0,1 42.35913384403234,11.155469271406648" fill="none" id="id97" stroke="none" /><text fill="#e1ed5e" style="font-size:6.75px; font-family:Arial;" text-anchor="middle"><textPath startOffset="22.145653131862478" xlink:href="#id97">January</textPath></text><path d="M 101.44090949804482 79.04949213459386 l 1.9759499345089844 -28.72987838636045 a49.79774800637625,49.79774800637625 0 0,0 0.8523264106600681,0.06597545467404775 l -2.468845339944286 28.69172516469135" fill="#bdff1f" stroke="none" /><path d="M 103.58742460773223 79.30868818359171 l 2.536882225109141 -14.632062524212628 a35.850354377473366,35.850354377473366 0 0,0 0.6054702613131305,0.11033685088684532 l -2.787687219973325 14.586357499394417" fill="#ff850c" stroke="none" /><path d="M 108.07796709384702 80.6158196554323 l 5.75834873404112 -13.817940708447255 a35.96977172721738,35.96977172721738 0 0,0 0.5679197456605535,0.24241116882694247 l -5.994703554872103 13.71705488996091" fill="#ff860c" stroke="none" /><line stroke="#e1ed5e" stroke-width="0.3" x1="143.13028292997686" x2="145.6673583964461" y1="26.7553504044142" y2="22.446841604673864" /><path d="M 143.63769802327073 25.89364864446614 a86.0,86.0 0 0,1 29.32050498858742,28.57503671076993" fill="none" id="id98" stroke="none" /><text fill="#e1ed5e" style="font-size:6.75px; font-family:Arial;" text-anchor="middle"><textPath startOffset="20.669276256404974" xlink:href="#id98">February</textPath></text><path d="M 115.16444852881244 85.47280134310134 l 8.561206544877294 -8.201442207665508 a32.85571220086449,32.85571220086449 0 0,0 0.38667131423257356,0.4106315360344163 l -8.700733692846129 8.053269211686597" fill="#ff5808" stroke="none" /><path d="M 116.35404254752997 86.82634096563983 l 14.278308508077949 -11.50159462568061 a39.33457860942913,39.33457860942913 0 0,0 0.4190697938808452,0.5294809946383774 l -14.473644732600352 11.254793687127556" fill="#ffb710" stroke="none" /><path d="M 117.01052211995028 87.68569379921539 l 24.088014495624137 -17.43786488012402 a50.737376715488224,50.737376715488224 0 0,0 0.5046796160030013,0.709895082668066 l -24.383809210157096 17.021792570746452" fill="#b1ff20" stroke="none" /><path d="M 117.42321728460499 88.27688183743584 l 24.869162953363197 -16.733082710501794 a50.97451122199371,50.97451122199371 0 0,0 0.4822566484653063,0.7301980317812936 l -25.15274404074923 16.303704800381443" fill="#aeff20" stroke="none" /><line stroke="#e1ed5e" stroke-width="0.3" x1="172.87174338648825" x2="177.1583165268699" y1="56.24261187166439" y2="53.66864786411523" /><path d="M 173.72905801456457 55.72781907015455 a86.0,86.0 0 0,1 12.242430191666344,42.057860355516425" fill="none" id="id99" stroke="none" /><text fill="#e1ed5e" style="font-size:6.75px; font-family:Arial;" text-anchor="middle"><textPath startOffset="22.145653131862474" xlink:href="#id99">March</textPath></text><path d="M 118.18653347947321 89.5 l 8.008864549688518 -4.623920103665918 a30.247840207331834,30.247840207331834 0 0,0 0.25576224766604944,0.4519073849606691 l -8.087060162375943 4.485755948606131" fill="#ff3104" stroke="none" /><path d="M 119.0197475246899 91.09779779509293 l 13.478868574153882 -6.308791080676648 a35.882229098456264,35.882229098456264 0 0,0 0.2563281809713601,0.5601233352938487 l -13.585181219980294 6.076478763168114" fill="#ff850c" stroke="none" /><path d="M 119.31412917781788 91.75594674310238 l 11.63097245770303 -4.964570521819734 a33.646204204344,33.646204204344 0 0,0 0.22218375964716347,0.5331601399955181 l -11.714482061886676 4.7641778723829376" fill="#ff6409" stroke="none" /><path d="M 119.4528033332814 92.08871423366111 l 5.704640624923182 -2.3200276795488692 a27.1583644820193,27.1583644820193 0 0,0 0.17192709333298045,0.43336858628894787 l -5.743626393222287 2.2217580760463562" fill="#ff0000" stroke="none" /><path d="M 120.05942366710727 93.78553927170692 l 34.26416093465084 -10.615124644157243 a56.87079028634088,56.87079028634088 0 0,0 0.2808975072762495,0.9350164447595932 l -34.44133476193071 10.025370595806928" fill="#69ff28" stroke="none" /><path d="M 120.43855184770803 95.1765574152323 l 44.22464554139445 -10.436895930302434 a66.43949900606238,66.43949900606238 0 0,0 0.25243573258257124,1.11227841527732 l -44.39729213553469 9.676183181086088" fill="#35ff67" stroke="none" /><path d="M 120.77682067341334 96.94652285012252 l 56.91203045133518 -8.364108602942183 a78.523365016448,78.523365016448 0 0,0 0.18455041152849058,1.3353148441355216 l -57.047225379418876 7.385905450606576" fill="#46fff4" stroke="none" /><path d="M 120.96210409425399 98.7389718711861 l 14.751632369285595 -0.8874215718015667 a35.77830080234711,35.77830080234711 0 0,0 0.03161849499219967,0.6133903558998528 l -14.764692453734366 0.6340594225249832" fill="#ff840c" stroke="none" /><path d="M 120.99303781780057 99.45929381324524 l 62.19736099449564 -1.6019833899897458 a83.21798827880416,83.21798827880416 0 0,0 0.02452381965165658,1.4283895486640497 l -62.21569624574597 0.5340469253566296" fill="#4cdaff" stroke="none" /><line stroke="#e1ed5e" stroke-width="0.3" x1="184.99686870605535" x2="189.99668451229388" y1="99.2704041080226" y2="99.22748670261217" /><path d="M 185.99683186730306 99.26182062694052 a86.0,86.0 0 0,1 -10.086455211305974,41.156179273409016" fill="none" id="id100" stroke="none" /><text fill="#e1ed5e" style="font-size:6.75px; font-family:Arial;" text-anchor="middle"><textPath startOffset="21.40746469413373" xlink:href="#id100">April</textPath></text><path d="M 120.77682067341334 103.0534771498775 l 29.287701469937673 4.304283538690041 a50.60230251473063,50.60230251473063 0 0,0 -0.1336828684707261,0.8583399132012823 l -29.20949710932868 -4.8064116338227745" fill="#b3ff20" stroke="none" /><path d="M 120.51834098615036 104.47187691870673 l 61.555022958451104 13.415630756120176 a84.0,84.0 0 0,0 -0.3191565537693437,1.4062626642439322 l -61.315655543124095 -14.470327754303124" fill="#4dd2ff" stroke="none" /><path d="M 119.4528033332814 107.91128576633889 l 35.68319048742647 14.512042925851983 a59.521285975986494,59.521285975986494 0 0,0 -0.3930506697534407,0.9431785223360518 l -35.42881397313655 -15.122453957629313" fill="#4bff2c" stroke="none" /><path d="M 118.8641267826498 109.22738970284198 l 40.64052459491017 19.8793171020288 a66.24201020945591,66.24201020945591 0 0,0 -0.5084234740280675,1.0171875274393072 l -40.29328120767037 -20.57403648563185" fill="#35ff65" stroke="none" /><line stroke="#e1ed5e" stroke-width="0.3" x1="174.33088141563837" x2="178.70328620479359" y1="141.23008692659167" y2="143.65538615756765" /><path d="M 175.20536237346943 141.71514677278685 a86.0,86.0 0 0,1 -30.301960400862466,31.631185727798858" fill="none" id="id101" stroke="none" /><text fill="#e1ed5e" style="font-size:6.75px; font-family:Arial;" text-anchor="middle"><textPath startOffset="22.145653131862474" xlink:href="#id101">May</textPath></text><path d="M 117.62189284568427 111.42229804090321 l 31.291697251643477 20.282900102954564 a58.290298382755616,58.290298382755616 0 0,0 -0.5514694160320109,0.8349949833882371 l -30.938903396690737 -20.81707496468186" fill="#59ff2a" stroke="none" /><path d="M 116.35404254752997 113.17365903436017 l 14.669092176429725 11.816382286780359 a39.83637851679373,39.83637851679373 0 0,0 -0.43355862000129575,0.5288710207560604 l -14.4640867371898 -12.066455589234913" fill="#ffbe11" stroke="none" /><path d="M 113.59037401385872 116.0094264158162 l 15.504069205999976 18.26375454024047 a44.95706350641896,44.95706350641896 0 0,0 -0.5926318590138285,0.4943945744717978 l -15.188263012824253 -18.527211298624138" fill="#fbff18" stroke="none" /><path d="M 111.5731344415666 117.5232005979908 l 16.46932374986824 24.936655254402226 a50.884367151654395,50.884367151654395 0 0,0 -0.7330120074707103,0.47512952724268787 l -16.038826110140523 -25.215698623348807" fill="#afff20" stroke="none" /><line stroke="#e1ed5e" stroke-width="0.3" x1="143.1302829299769" x2="145.66735839644613" y1="173.24464959558577" y2="177.55315839532614" /><path d="M 143.63769802327073 174.10635135553383 a86.0,86.0 0 0,1 -40.68552437913181,11.842963189579606" fill="none" id="id102" stroke="none" /><text fill="#e1ed5e" style="font-size:6.75px; font-family:Arial;" text-anchor="middle"><textPath startOffset="21.407464694133747" xlink:href="#id102">June</textPath></text><path d="M 105.69591212413111 120.21278271476187 l 4.063886152269833 14.421298289585243 a35.98295748561694,35.98295748561694 0 0,0 -0.5959781839463671,0.16243650423184908 l -3.8157265673887713 -14.488935287961235" fill="#ff870c" stroke="none" /><path d="M 100.72087961077811 120.9876233191556 l 0.5088182291010462 14.813687570891187 a35.82242339964156,35.82242339964156 0 0,0 -0.6147583071881647,0.015833993295325297 l -0.25444660784213763 -14.820239281536558" fill="#ff840c" stroke="none" /><line stroke="#e1ed5e" stroke-width="0.3" x1="101.45913802915013" x2="101.54496967792366" y1="184.9874750549273" y2="189.98673829345242" /><path d="M 101.47630435890484 185.9873277026323 a86.0,86.0 0 0,1 -42.54439059252881,-10.42667462771756" fill="none" id="id103" stroke="none" /><text fill="#e1ed5e" style="font-size:6.75px; font-family:Arial;" text-anchor="middle"><textPath startOffset="22.145653131862474" xlink:href="#id103">July</textPath></text><path d="M 99.63950707515114 120.99690560180557 l -0.40605238881351663 23.650515973038424 a44.65400144443656,44.65400144443656 0 0,0 -0.7663194092400336,-0.01973766965993573 l 0.8119851121242941 -23.640060586028444" fill="#ffff18" stroke="none" /><path d="M 98.55909050195518 120.95050786540614 l -2.0746472223920445 30.16491529110283 a51.23617495016174,51.23617495016174 0 0,0 -0.8769461841051667,-0.06788118084502835 l 2.5921624012724473 -30.124856343262746" fill="#abff21" stroke="none" /><path d="M 97.48249496171623 120.84855314841334 l -1.1026544102242752 9.13156030526359 a30.197893256450236,30.197893256450236 0 0,0 -0.5141150748264472,-0.06656248937866077 l 1.2592473069415164 -9.111286219684533" fill="#ff3004" stroke="none" /><path d="M 96.05791012581884 120.62667999033965 l -5.643165261811948 29.527425224462768 a51.06183884193316,51.06183884193316 0 0,0 -0.8595494993273907,-0.1719339729531823 l 6.149211246670297 -29.426201854846724" fill="#adff20" stroke="none" /><path d="M 94.6519064749342 120.30758222061772 l -3.7841713867528584 14.369115127328865 a35.85905187509453,35.85905187509453 0 0,0 -0.593925961285975,-0.1618771618199264 l 4.030278748973529 -14.302037471364793" fill="#ff850c" stroke="none" /><path d="M 91.26138138417905 119.09545874513695 l -11.149170642644673 24.362949959123785 a47.79285980871731,47.79285980871731 0 0,0 -0.7430908630430414,-0.34780404476141435 l 11.565750219559204 -24.167969682791842" fill="#d6ff1c" stroke="none" /><path d="M 90.28995756902619 118.62028667847754 l -5.261191901887151 10.089029186023692 a32.37842915981467,32.37842915981467 0 0,0 -0.4906275374245497,-0.2612315289726285 l 5.433608255098263 -9.997227189328491" fill="#ff5107" stroke="none" /><line stroke="#e1ed5e" stroke-width="0.3" x1="58.13341422392154" x2="55.67067388415222" y1="173.97424548756322" y2="178.32567169271397" /><path d="M 57.64086615596768 174.84453072859336 a86.0,86.0 0 0,1 -31.369924170532247,-30.572349798747897" fill="none" id="id104" stroke="none" /><text fill="#e1ed5e" style="font-size:6.75px; font-family:Arial;" text-anchor="middle"><textPath startOffset="22.145653131862474" xlink:href="#id104">August</textPath></text><path d="M 86.13680546590413 115.77377054828092 l -5.939445886004827 6.757999129230382 a29.997086732018218,29.997086732018218 0 0,0 -0.3838698237288539,-0.34325876343713624 l 6.054580736557051 -6.655044835909863" fill="#ff2d04" stroke="none" /><path d="M 83.8745106332314 113.45245675266167 l -12.982050772185794 10.83008847679293 a37.906343740347076,37.906343740347076 0 0,0 -0.4125531158519131,-0.503247721141014 l 13.166050707276336 -10.605638473953421" fill="#ffa20f" stroke="none" /><path d="M 83.20337586046588 112.60449989151573 l -15.46721974099912 11.606890046947303 a40.337910514796505,40.337910514796505 0 0,0 -0.4108665520630069,-0.5574193870795459 l 15.664188312645958 -11.339664350598877" fill="#ffc512" stroke="none" /><path d="M 82.78059297857968 112.02048342749411 l -12.19008294639394 8.509624626134222 a35.86646674626067,35.86646674626067 0 0,0 -0.3480930489076086,-0.5078781612430004 l 12.334365732116872 -8.29911172982117" fill="#ff850c" stroke="none" /><path d="M 82.37810715431573 111.42229804090323 l -17.421935320800127 11.292687989091599 a41.761710727710195,41.761710727710195 0 0,0 -0.3847691520594859,-0.6049210154949738 l 17.613222164485503 -10.991953298917952" fill="#ffd814" stroke="none" /><line stroke="#e1ed5e" stroke-width="0.3" x1="26.387840678322732" x2="22.057713659400548" y1="142.50000000000003" y2="145.00000000000006" /><path d="M 25.521815274538298 143.00000000000003 a86.0,86.0 0 0,1 -11.493303480769221,-40.785679425670985" fill="none" id="id105" stroke="none" /><text fill="#e1ed5e" style="font-size:6.75px; font-family:Arial;" text-anchor="middle"><textPath startOffset="21.40746469413373" xlink:href="#id105">September</textPath></text><path d="M 80.5471966667186 107.91128576633889 l -18.418249600003644 7.490541769478042 a40.88316208072372,40.88316208072372 0 0,0 -0.2588124637421957,-0.6523764774449266 l 18.544120738711964 -7.17326427481955" fill="#ffcc13" stroke="none" /><path d="M 80.28708602549918 107.23885506374661 l -10.39575433862908 3.8174649893462265 a32.074508892678246,32.074508892678246 0 0,0 -0.1853598545304506,-0.5184845028720735 l 10.459754363203475 -3.638445530093232" fill="#ff4d07" stroke="none" /><path d="M 79.407916724674 104.11899336999214 l -10.67017894781235 2.134334625352421 a31.88154874415017,31.88154874415017 0 0,0 -0.10274012434779933,-0.5375797444318536 l 10.705245364442305 -1.9508523158872528" fill="#ff4a06" stroke="none" /><path d="M 79.17382384314188 102.69636545807758 l -15.193846134833235 1.9671475735510366 a36.32066023202377,36.32066023202377 0 0,0 -0.07474776956665488,-0.6190187597789593 l 15.225375990659552 -1.7060351368486781" fill="#ff8c0c" stroke="none" /><line stroke="#e1ed5e" stroke-width="0.3" x1="15.003131293944662" x2="10.003315487706104" y1="100.72959589197737" y2="100.7725132973878" /><path d="M 14.003168132696942 100.73817937305945 a86.0,86.0 0 0,1 10.791469493833604,-42.45332614584628" fill="none" id="id106" stroke="none" /><text fill="#e1ed5e" style="font-size:6.75px; font-family:Arial;" text-anchor="middle"><textPath startOffset="22.145653131862435" xlink:href="#id106">October</textPath></text><path d="M 79.00077361379809 100.18025310272382 l -9.2322211786308 0.07924751521200046 a30.23256129466934,30.23256129466934 0 0,0 0.0,-0.5190012358716326 l 9.2322211786308 0.07924751521199708" fill="#ff3004" stroke="none" /><path d="M 79.01933749520258 99.09900007780938 l -18.168071314161146 -0.7802151546296431 a39.18481649519617,39.18481649519617 0 0,0 0.03462894817080024,-0.6717923433156244 l 18.152000776533775 1.0919792913219795" fill="#ffb510" stroke="none" /><path d="M 79.17382384314186 97.30363454192245 l -20.80037568587444 -2.6930250705652927 a41.97398418765995,41.97398418765995 0 0,0 0.0986498229374294,-0.7137809764208992 l 20.7510813463818 3.0496943551862588" fill="#ffdb14" stroke="none" /><path d="M 79.2786578344484 96.59031103205396 l -9.575095921713464 -1.57557839016662 a30.703860529375607,30.703860529375607 0 0,0 0.09004299306640856,-0.5193440560127922 l 9.54663811115482 1.7397154791000047" fill="#ff3805" stroke="none" /><path d="M 80.41425534168474 92.42381321644754 l -27.620543741803846 -10.68421967618906 a50.61497909305298,50.61497909305298 0 0,0 0.3204201136758104,-0.8076680003732298 l 27.433064953161903 11.156788693775875" fill="#b3ff20" stroke="none" /><path d="M 81.1358732173502 90.77261029715801 l -10.618959178897338 -5.194265057229056 a32.82128095968617,32.82128095968617 0 0,0 0.2519112815992358,-0.5039913118760662 l 10.528227984086358 5.375788225268892" fill="#ff5808" stroke="none" /><line stroke="#e1ed5e" stroke-width="0.3" x1="26.387840678322718" x2="22.05771365940052" y1="57.49999999999999" y2="54.99999999999999" /><path d="M 25.521815274538284 56.99999999999999 a86.0,86.0 0 0,1 29.574782752854787,-30.34633250058573" fill="none" id="id107" stroke="none" /><text fill="#e1ed5e" style="font-size:6.75px; font-family:Arial;" text-anchor="middle"><textPath startOffset="21.40746469413373" xlink:href="#id107">November</textPath></text><path d="M 82.37810715431573 88.57770195909679 l -24.85577536027633 -16.11121328957271 a50.620613809011864,50.620613809011864 0 0,0 0.47890851669916784,-0.7251285335513503 l 24.575542404656435 16.53552170146312" fill="#b3ff20" stroke="none" /><path d="M 83.64595745247003 86.82634096563983 l -48.45312512063259 -39.03040778041826 a83.21798827880416,83.21798827880416 0 0,0 0.9057017103658621,-1.1048088216081982 l 47.7759765910281 39.85641888372495" fill="#4cdaff" stroke="none" /><path d="M 85.60350026404147 84.71141617570332 l -19.983303456060018 -21.22157577034051 a50.14940299891721,50.14940299891721 0 0,0 0.6318113818996307,-0.5847951826900548 l 19.616062302846434 21.56148869916293" fill="#b8ff1f" stroke="none" /><path d="M 86.96720088162412 83.53348406188908 l -10.252178947902616 -12.953293188412268 a37.519533213889105,37.519533213889105 0 0,0 0.5084612397428798,-0.3953825354243783 l 10.028307763524491 13.127376775457451" fill="#ff9d0e" stroke="none" /><line stroke="#e1ed5e" stroke-width="0.3" x1="56.869717070023135" x2="54.33264160355391" y1="26.7553504044142" y2="22.446841604673864" /><path d="M 56.362301976729285 25.89364864446614 a86.0,86.0 0 0,1 42.16139366436587,-11.88097634709845" fill="none" id="id108" stroke="none" /><text fill="#e1ed5e" style="font-size:6.75px; font-family:Arial;" text-anchor="middle"><textPath startOffset="22.145653131862474" xlink:href="#id108">December</textPath></text><path d="M 89.34428304082924 81.90426304109057 l -17.623769030809548 -29.929012738240214 a55.732449357007155,55.732449357007155 0 0,0 0.8285757368498313,-0.47837842471424 l 17.10740082609932 30.22713806023063" fill="#76ff27" stroke="none" /><path d="M 90.61103034731259 81.2157712731953 l -6.6416394841267525 -13.287728026163622 a35.855136860170816,35.855136860170816 0 0,0 0.5529199325463185,-0.27046084617956223 l 6.412559302318381 13.399782622440398" fill="#ff850c" stroke="none" /><path d="M 93.95794788825049 79.88797359093562 l -9.701454573443206 -32.29298704789414 a54.71876678225407,54.71876678225407 0 0,0 0.9019215836429625,-0.26253622825247014 l 9.145672977418618 32.45476697044913" fill="#81ff25" stroke="none" /><path d="M 96.05791012581881 79.37332000966035 l -8.022820952622437 -41.97878934556449 a63.73855883107334,63.73855883107334 0 0,0 1.0764691881378778,-0.19616854515407753 l 7.3010170309335205 42.11032606464993" fill="#32ff45" stroke="none" /><path d="M 98.9189461498227 79.02784411241856 l -2.2835115862560222 -44.29951472834185 a65.35832988663056,65.35832988663056 0 0,0 1.1209707978722785,-0.04813930930112287 l 1.5227150277829233 44.332186606068795" fill="#34ff5a" stroke="none" /></svg>