<?xml version="1.0" encoding="utf-8" ?>
<svg baseProfile="full" height="200mm" version="1.1" viewBox="0,0,200,200" width="200mm" xmlns="http://www.w3.org/2000/svg" xmlns:ev="http://www.w3.org/2001/xml-events" xmlns:xlink="http://www.w3.org/1999/xlink"><defs /><rect fill="#1a1a1a" height="200" width="200" x="0" y="0" /><text alignment-baseline="middle" fill="#e1ed5e" style="dominant-baseline: central; font-size:9.0px; font-family:Arial;" text-anchor="middle" x="100.0" y="100.0">2023</text><line stroke="#e1ed5e" stroke-width="0.3" x1="100.0" x2="100.0" y1="15.0" y2="10.0" /><path d="M 100.0 14.0 a86.0,86.0 0 0,1 42.46469731375804,11.215312516191453" fill="none" id="id85" stroke="none" /><text fill="#e1ed5e" style="font-size:6.75px; font-family:Arial;" text-anchor="middle"><textPath startOffset="22.20632615414155" xlink:href="#id85">January</textPath></text><path d="M 106.40334571778207 80.00007090966166 l 8.911293516181711 -27.83314321634941 a50.22490399356958,50.22490399356958 0 0,0 0.8210986805818021,0.2707033253556931 l -9.38907501900593 27.675626166734478" fill="#b2ff20" stroke="none" /><path d="M 110.05341064243156 81.56283822128135 l 13.605807806635678 -24.951977849421958 a49.42040120528126,49.42040120528126 0 0,0 0.7433673451973196,0.4136831227755605 l -14.033299240905032 24.714079329086218" fill="#bcff1f" stroke="none" /><path d="M 110.36928655335952 81.73862282372117 l 14.07227911131762 -24.782726878965732 a49.49934369321927,49.49934369321927 0 0,0 0.7373122118124157,0.4270988232920192 l -14.496788055595363 24.536823898283664" fill="#bbff1f" stroke="none" /><line stroke="#e1ed5e" stroke-width="0.3" x1="143.23703022742887" x2="145.7803849466894" y1="26.81831364943548" y2="22.513508569990506" /><path d="M 143.74570117128098 25.957352633546492 a86.0,86.0 0 0,1 28.547481713284135,27.462654790039103" fill="none" id="id86" stroke="none" /><text fill="#e1ed5e" style="font-size:6.75px; font-family:Arial;" text-anchor="middle"><textPath startOffset="19.985693538727396" xlink:href="#id86">February</textPath></text><path d="M 110.68208982089419 81.91981866633111 l 14.363026344301064 -24.31042288160504 a49.23638054796599,49.23638054796599 0 0,0 0.7259738637997283,0.43739112996233204 l -14.779362274318428 24.059585142184094" fill="#beff1f" stroke="none" /><path d="M 110.99172775467656 82.1063720568725 l 14.854447120546379 -24.181817090841868 a49.379832224170045,49.379832224170045 0 0,0 0.7204302310741261,0.45113334460622134 l -15.268496503992768 23.922539404912705" fill="#bcff1f" stroke="none" /><path d="M 114.68862486808459 84.99185889309783 l 19.78023309117017 -20.21050520561148 a49.27935893557476,49.27935893557476 0 0,0 0.6011241690475625,0.5985427508290404 l -20.125193060385058 19.86702660413232" fill="#bdff1f" stroke="none" /><path d="M 115.4437574822437 85.77008943001954 l 20.667989922506365 -19.043529309280196 a49.103768715071624,49.103768715071624 0 0,0 0.567397226115785,0.6265341886554362 l -20.992730789238184 18.68494233335521" fill="#c0ff1e" stroke="none" /><path d="M 116.15771136456269 86.58626213691792 l 21.827383761248587 -18.12056159465918 a49.36881094382801,49.36881094382801 0 0,0 0.537183225955209,0.6585231177614791 l -22.136065479280205 17.7421543072896" fill="#bcff1f" stroke="none" /><path d="M 116.38621287248628 86.86637796730983 l 23.04140440383395 -18.46778745627279 a50.52906179395284,50.52906179395284 0 0,0 0.5381246896015709,0.6833637083761686 l -23.355883174029486 18.068431353943584" fill="#aeff20" stroke="none" /><line stroke="#e1ed5e" stroke-width="0.3" x1="172.23445277983987" x2="176.4835382374775" y1="55.19839476539836" y2="52.563006222186495" /><path d="M 173.08426987136738 54.67131705675599 a86.0,86.0 0 0,1 12.851231095245387,41.99856678651699" fill="none" id="id87" stroke="none" /><text fill="#e1ed5e" style="font-size:6.75px; font-family:Arial;" text-anchor="middle"><textPath startOffset="22.20632615414155" xlink:href="#id87">March</textPath></text><path d="M 119.34039704204932 91.81776055985345 l 12.848678217850392 -5.435822307022687 a34.95122561280508,34.95122561280508 0 0,0 0.22964338815784652,0.5560996795743816 l -12.940343292894436 5.213848056995002" fill="#ff810b" stroke="none" /><path d="M 119.47837535516314 92.15188598940014 l 26.256750985341533 -10.579217800434698 a49.30789327334812,49.30789327334812 0 0,0 0.3104200729753018,0.7899852265862112 l -26.434964608198534 10.125683568952702" fill="#bdff1f" stroke="none" /><line stroke="#e1ed5e" stroke-width="0.3" x1="184.98032266829074" x2="189.97916517819016" y1="98.17113171792111" y2="98.06355123074" /><path d="M 185.9800911702706 98.14961562048488 a86.0,86.0 0 0,1 -9.607161424134198,41.387399972396054" fill="none" id="id88" stroke="none" /><text fill="#e1ed5e" style="font-size:6.75px; font-family:Arial;" text-anchor="middle"><textPath startOffset="21.466115282336823" xlink:href="#id88">April</textPath></text><path d="M 120.99513854157772 99.54816195383933 l 62.50204551959128 -1.3451114920099507 a83.51651796972538,83.51651796972538 0 0,0 0.018560523567518552,1.4375330047189308 l -62.51593905027651 0.26904222923055743" fill="#4cd7ff" stroke="none" /><path d="M 120.92983693683757 101.71520430193887 l 62.307644141201344 5.106123836376747 a83.51651796972538,83.51651796972538 0 0,0 -0.12975048172834205,1.4317857539389947 l -62.210519063195925 -6.177890978864313" fill="#4cd7ff" stroke="none" /><path d="M 120.41448212921028 104.9243191809786 l 61.24344638763086 14.772957542935806 a84.0,84.0 0 0,0 -0.35115474281975656,1.4026886424104164 l -60.980080330516046 -15.82497402474362" fill="#4dd2ff" stroke="none" /><path d="M 120.02730092923936 106.31721596034902 l 14.362498708971435 4.530366143464771 a36.06006595467158,36.06006595467158 0 0,0 -0.19181851409533482,0.5903566829566355 l -14.282387943859852 -4.776921726399201" fill="#ff910d" stroke="none" /><line stroke="#e1ed5e" stroke-width="0.3" x1="174.80103733775053" x2="179.2010983576182" y1="140.37084112569926" y2="142.7455964860345" /><path d="M 175.68104954172406 140.8457921977663 a86.0,86.0 0 0,1 -30.038265399797805,32.042727171017184" fill="none" id="id89" stroke="none" /><text fill="#e1ed5e" style="font-size:6.75px; font-family:Arial;" text-anchor="middle"><textPath startOffset="22.206326154141568" xlink:href="#id89">May</textPath></text><line stroke="#e1ed5e" stroke-width="0.3" x1="143.8653032363475" x2="146.44561519142675" y1="172.8068346515853" y2="177.08958963109032" /><path d="M 144.38136562736335 173.6633856474863 a86.0,86.0 0 0,1 -40.68145358897372,12.25698825130547" fill="none" id="id90" stroke="none" /><text fill="#e1ed5e" style="font-size:6.75px; font-family:Arial;" text-anchor="middle"><textPath startOffset="21.466115282336833" xlink:href="#id90">June</textPath></text><path d="M 101.62511606390274 120.93702456842531 l 0.922513769232089 11.88511631885446 a32.920864967238046,32.920864967238046 0 0,0 -0.5653566597406837,0.03899030531862104 l -0.7177943487124749 -11.899234968689365" fill="#ff6409" stroke="none" /><line stroke="#e1ed5e" stroke-width="0.3" x1="102.19456741930631" x2="102.32365962044197" y1="184.97166512339345" y2="189.96999836594603" /><path d="M 102.22038585953345 185.97133177190398 a86.0,86.0 0 0,1 -42.740103519485714,-10.115201625700543" fill="none" id="id91" stroke="none" /><text fill="#e1ed5e" style="font-size:6.75px; font-family:Arial;" text-anchor="middle"><textPath startOffset="22.20632615414155" xlink:href="#id91">July</textPath></text><path d="M 92.40401165467489 119.57807347666478 l -5.296534624565727 13.651409051366658 a35.64289070221311,35.64289070221311 0 0,0 -0.570080751229381,-0.2268468960400215 l 5.530736451836966 -13.55821531092057" fill="#ff8b0c" stroke="none" /><path d="M 90.10565033884886 118.52300852407294 l -14.08526526178473 26.368735434150093 a50.894897656473795,50.894897656473795 0 0,0 -0.7691847384973794,-0.41942084843727506 l 14.53707281215075 -26.12237393395305" fill="#aaff21" stroke="none" /><line stroke="#e1ed5e" stroke-width="0.3" x1="58.666819895761336" x2="56.23545636021788" y1="174.27360380694188" y2="178.64263932499728" /><path d="M 58.180547188652646 175.14741091055294 a86.0,86.0 0 0,1 -31.652253787137756,-30.449443065178592" fill="none" id="id92" stroke="none" /><text fill="#e1ed5e" style="font-size:6.75px; font-family:Arial;" text-anchor="middle"><textPath startOffset="22.20632615414155" xlink:href="#id92">August</textPath></text><path d="M 84.19399662182784 113.82643327865904 l -11.487598930003715 10.048872971711267 a36.26252853161008,36.26252853161008 0 0,0 -0.4069303081132031,-0.473351881562987 l 11.658871747687696 -9.849643990986749" fill="#ff940d" stroke="none" /><line stroke="#e1ed5e" stroke-width="0.3" x1="26.63291911575756" x2="22.317208475507996" y1="142.92168965132927" y2="145.44649492493687" /><path d="M 25.769776987707644 143.4266507060508 a86.0,86.0 0 0,1 -11.730757126820373,-40.83630448921669" fill="none" id="id93" stroke="none" /><text fill="#e1ed5e" style="font-size:6.75px; font-family:Arial;" text-anchor="middle"><textPath startOffset="21.46611528233685" xlink:href="#id93">September</textPath></text><path d="M 81.35079622478065 109.6543875284942 l -13.533461621275297 7.006051554190724 a36.23940096704951,36.23940096704951 0 0,0 -0.28201386248495636,-0.5564401053448933 l 13.65205415354652 -6.772057237143145" fill="#ff940d" stroke="none" /><line stroke="#e1ed5e" stroke-width="0.3" x1="15.007084014347285" x2="10.007500721073583" y1="101.09737516637583" y2="101.16192664675087" /><path d="M 14.007167355692545 101.11028546245083 a86.0,86.0 0 0,1 10.666146001902534,-42.60595125391555" fill="none" id="id94" stroke="none" /><text fill="#e1ed5e" style="font-size:6.75px; font-family:Arial;" text-anchor="middle"><textPath startOffset="22.20632615414155" xlink:href="#id94">October</textPath></text><path d="M 79.05617556472873 98.46500227214037 l -26.28864010893535 -1.9267256064168168 a47.35915154817292,47.35915154817292 0 0,0 0.06658587596811759,-0.8125163426502094 l 26.251579749147734 2.3789558662748047" fill="#d5ff1c" stroke="none" /><path d="M 79.91906864156998 93.8553929516997 l -27.42984581993889 -8.393317070337543 a49.68526125292985,49.68526125292985 0 0,0 0.25728569994286965,-0.8156659784765563 l 27.281304636227816 8.864233215240514" fill="#b8ff1f" stroke="none" /><path d="M 80.38941819471856 92.48833698450439 l -8.142514149461823 -3.1189193159577626 a29.719414795365594,29.719414795365594 0 0,0 0.187099920461373,-0.4761488896103013 l 8.087620679118759 3.2586172104638274" fill="#ff3404" stroke="none" /><path d="M 81.26839172434947 90.50648371742162 l -4.8059813643420775 -2.4357578732552927 a26.387984158433326,26.387984158433326 0 0,0 0.2088301926215222,-0.40339346282948774 l 4.763341738560441 2.518124058345116" fill="#ff0000" stroke="none" /><line stroke="#e1ed5e" stroke-width="0.3" x1="26.266209847984243" x2="21.928928074336255" y1="57.711370442889674" y2="55.22380399835377" /><path d="M 25.398753493254645 57.213857153982495 a86.0,86.0 0 0,1 29.58750427330803,-30.492523968695096" fill="none" id="id95" stroke="none" /><text fill="#e1ed5e" style="font-size:6.75px; font-family:Arial;" text-anchor="middle"><textPath startOffset="21.46611528233685" xlink:href="#id95">November</textPath></text><path d="M 81.96595687620814 89.24020034530311 l -12.687772404383374 -7.570010130199386 a35.7744584319275,35.7744584319275 0 0,0 0.3200693125821721,-0.5261097933258629 l 12.555587293514986 7.787287696732324" fill="#ff8d0d" stroke="none" /><path d="M 82.7489923806493 88.02491185347247 l -7.308233194640619 -5.073137675913553 a29.896459874917696,29.896459874917696 0 0,0 0.297095899449288,-0.4202210804271327 l 7.219824675387453 5.198185256672472" fill="#ff3605" stroke="none" /><path d="M 84.5562425177563 85.77008943001954 l -10.83737326141675 -9.985578477308051 a35.73636443407086,35.73636443407086 0 0,0 0.4207236705750043,-0.44879867765981035 l 10.66388226887129 10.17064657184591" fill="#ff8c0c" stroke="none" /><path d="M 86.10567301691215 84.25364557470407 l -18.915191599990028 -21.436469094066986 a49.58857604857616,49.58857604857616 0 0,0 0.644902268340106,-0.5592528921320573 l 18.54339553300315 21.758886979618723" fill="#baff1f" stroke="none" /><path d="M 86.93701828274178 83.55741782278169 l -22.09349917405145 -27.809437662436913 a56.517425707035365,56.517425707035365 0 0,0 0.7669345901286123,-0.5986046125102714 l 21.61153202876341 28.185620664170408" fill="#68ff28" stroke="none" /><line stroke="#e1ed5e" stroke-width="0.3" x1="56.762969772571076" x2="54.21961505331055" y1="26.818313649435495" y2="22.513508569990535" /><path d="M 56.25429882871897 25.957352633546506 a86.0,86.0 0 0,1 42.265352541879196,-11.944610805530505" fill="none" id="id96" stroke="none" /><text fill="#e1ed5e" style="font-size:6.75px; font-family:Arial;" text-anchor="middle"><textPath startOffset="22.20632615414155" xlink:href="#id96">December</textPath></text><path d="M 90.91171255644093 81.06846463323043 l -3.649256757672226 -7.601655845431729 a29.432214802517947,29.432214802517947 0 0,0 0.4586124749092411,-0.21532470629180336 l 3.5178660714633763 7.663345534363541" fill="#ff2f04" stroke="none" /></svg>