<?xml version="1.0" encoding="utf-8" ?>
<svg baseProfile="full" height="200mm" version="1.1" viewBox="0,0,200,200" width="200mm" xmlns="http://www.w3.org/2000/svg" xmlns:ev="http://www.w3.org/2001/xml-events" xmlns:xlink="http://www.w3.org/1999/xlink"><defs /><rect fill="#1a1a1a" height="200" width="200" x="0" y="0" /><text alignment-baseline="middle" fill="#e1ed5e" style="dominant-baseline: central; font-size:9.0px; font-family:Arial;" text-anchor="middle" x="100.0" y="100.0">2018</text><line stroke="#e1ed5e" stroke-width="0.3" x1="100.0" x2="100.0" y1="15.0" y2="10.0" /><path d="M 100.0 14.0 a86.0,86.0 0 0,1 42.46469731375804,11.215312516191453" fill="none" id="id25" stroke="none" /><text fill="#e1ed5e" style="font-size:6.75px; font-family:Arial;" text-anchor="middle"><textPath startOffset="22.20632615414155" xlink:href="#id25">January</textPath></text><path d="M 105.01212808612495 79.60689891045804 l 7.971991317677759 -32.43604752967209 a54.40134465730798,54.40134465730798 0 0,0 0.9074432131922565,0.23132748010868434 l -8.52914341955504 32.29401705339454" fill="red" stroke="none" /><line stroke="#e1ed5e" stroke-width="0.3" x1="143.23703022742887" x2="145.7803849466894" y1="26.81831364943548" y2="22.513508569990506" /><path d="M 143.74570117128098 25.957352633546492 a86.0,86.0 0 0,1 28.547481713284135,27.462654790039103" fill="none" id="id26" stroke="none" /><text fill="#e1ed5e" style="font-size:6.75px; font-family:Arial;" text-anchor="middle"><textPath startOffset="19.985693538727396" xlink:href="#id26">February</textPath></text><path d="M 117.2510076193507 88.02491185347247 l 51.75302285805209 -35.92526443958259 a84.0,84.0 0 0,0 0.8143021373250665,1.1948879069183742 l -52.36374946104589 35.02909850939381" fill="red" stroke="none" /><line stroke="#e1ed5e" stroke-width="0.3" x1="172.23445277983987" x2="176.4835382374775" y1="55.19839476539836" y2="52.563006222186495" /><path d="M 173.08426987136738 54.67131705675599 a86.0,86.0 0 0,1 12.851231095245387,41.99856678651699" fill="none" id="id27" stroke="none" /><text fill="#e1ed5e" style="font-size:6.75px; font-family:Arial;" text-anchor="middle"><textPath startOffset="22.20632615414155" xlink:href="#id27">March</textPath></text><path d="M 119.61058180528143 92.48833698450437 l 36.69499978711818 -14.055700921646375 a60.294856378098316,60.294856378098316 0 0,0 0.3629044372926258,0.9724034672095826 l -36.93150881291243 13.421974317407459" fill="red" stroke="none" /><path d="M 119.7369772167798 92.82701384747503 l 35.60651384799073 -12.940432973403249 a58.88507138631651,58.88507138631651 0 0,0 0.3380197115197568,0.9556272426902338 l -35.8239866403203 12.3256081042864" fill="red" stroke="none" /><path d="M 120.94382443527127 98.46500227214037 l 42.284796085981036 -3.0991028460723498 a63.39821244443604,63.39821244443604 0 0,0 0.07040042121813135,1.0890633562805105 l -42.331877098203584 2.370780425538804" fill="red" stroke="none" /><path d="M 120.96714384426684 98.82574320788733 l 42.82562621753929 -2.3984326542489214 a63.892735283744216,63.892735283744216 0 0,0 0.05204638860939197,1.0986170037350864 l -42.860566214382175 1.6609045438908354" fill="red" stroke="none" /><line stroke="#e1ed5e" stroke-width="0.3" x1="184.98032266829074" x2="189.97916517819016" y1="98.17113171792111" y2="98.06355123074" /><path d="M 185.9800911702706 98.14961562048488 a86.0,86.0 0 0,1 -9.607161424134198,41.387399972396054" fill="none" id="id28" stroke="none" /><text fill="#e1ed5e" style="font-size:6.75px; font-family:Arial;" text-anchor="middle"><textPath startOffset="21.466115282336823" xlink:href="#id28">April</textPath></text><path d="M 120.99513854157772 99.54816195383933 l 42.98827796322139 -0.9251541486257802 a63.998231968790364,63.998231968790364 0 0,0 0.014222823479863509,1.1015733526168325 l -42.99783379381898 0.1850445379484848" fill="red" stroke="none" /><path d="M 120.99980553446 99.90962569577887 l 43.02487063306866 -0.1851608930990846 a64.02526905841063,64.02526905841063 0 0,0 -0.004743061172117537,1.102120377146397 l -43.021683274607035 -0.5554689622509972" fill="red" stroke="none" /><path d="M 120.70491114924044 103.5080841355445 l 34.412137292762935 5.830533250626846 a55.90258315716232,55.90258315716232 0 0,0 -0.16891513255958557,0.9473657681529083 l -34.30667571786416 -6.422017769512974" fill="red" stroke="none" /><path d="M 120.49622156327973 104.57218783832717 l 53.838679840172134 12.01004567777688 a76.16198549830168,76.16198549830168 0 0,0 -0.2964494091541248,1.2770962958341 l -53.62396986508745 -12.935010630959544" fill="red" stroke="none" /><path d="M 120.23288151984713 105.62410040840565 l 41.4826508387981 11.530863426219305 a64.0554425359647,64.0554425359647 0 0,0 -0.3044383244099344,1.0597897458269885 l -41.27801987750206 -12.243210647550876" fill="red" stroke="none" /><line stroke="#e1ed5e" stroke-width="0.3" x1="174.80103733775053" x2="179.2010983576182" y1="140.37084112569926" y2="142.7455964860345" /><path d="M 175.68104954172406 140.8457921977663 a86.0,86.0 0 0,1 -30.038265399797805,32.042727171017184" fill="none" id="id29" stroke="none" /><text fill="#e1ed5e" style="font-size:6.75px; font-family:Arial;" text-anchor="middle"><textPath startOffset="22.206326154141568" xlink:href="#id29">May</textPath></text><path d="M 117.94076556474637 110.91462005526583 l 35.26335996475947 21.453163439341946 a62.27641914652141,62.27641914652141 0 0,0 -0.5650409505843539,0.9110259252973952 l -34.88885437450716 -22.056985696004617" fill="red" stroke="none" /><path d="M 117.55443506779139 111.5257021239791 l 25.357952643809135 16.64925174281238 a51.335183300603404,51.335183300603404 0 0,0 -0.4913434488853664,0.7344917897290395 l -25.06760608951305 -17.083280446747224" fill="red" stroke="none" /><line stroke="#e1ed5e" stroke-width="0.3" x1="143.8653032363475" x2="146.44561519142675" y1="172.8068346515853" y2="177.08958963109032" /><path d="M 144.38136562736335 173.6633856474863 a86.0,86.0 0 0,1 -40.68145358897372,12.25698825130547" fill="none" id="id30" stroke="none" /><text fill="#e1ed5e" style="font-size:6.75px; font-family:Arial;" text-anchor="middle"><textPath startOffset="21.466115282336833" xlink:href="#id30">June</textPath></text><path d="M 105.18746579009965 120.34920634021253 l 4.705571215274961 18.458847437788172 a40.049185000770066,40.049185000770066 0 0,0 -0.6694826115824661,0.16454253749595557 l -4.387135318949284 -18.537111233598157" fill="red" stroke="none" /><path d="M 103.06178313531738 120.77559828337769 l 4.382932573990254 29.74020119518139 a51.06143152077115,51.06143152077115 0 0,0 -0.8706494628885575,0.12066408218038034 l -3.8703545199148657 -29.811239842854373" fill="red" stroke="none" /><line stroke="#e1ed5e" stroke-width="0.3" x1="102.19456741930631" x2="102.32365962044197" y1="184.97166512339345" y2="189.96999836594603" /><path d="M 102.22038585953345 185.97133177190398 a86.0,86.0 0 0,1 -42.740103519485714,-10.115201625700543" fill="none" id="id31" stroke="none" /><text fill="#e1ed5e" style="font-size:6.75px; font-family:Arial;" text-anchor="middle"><textPath startOffset="22.20632615414155" xlink:href="#id31">July</textPath></text><path d="M 98.37488393609728 120.93702456842531 l -2.2606293329414675 29.12459788886299 a50.21220031372026,50.21220031372026 0 0,0 -0.8611528219850617,-0.07430388902297089 l 2.761626472668071 -29.081369747561357" fill="red" stroke="none" /><path d="M 96.58105272829116 120.7198165907248 l -2.3930113825494157 14.502346191831853 a35.69845395083275,35.69845395083275 0 0,0 -0.6054305281641308,-0.10526185777323652 l 2.6422908821855966 -14.45900575553761" fill="red" stroke="none" /><path d="M 94.81253420990036 120.34920634021253 l -5.269915940693488 20.672638859115672 a42.33377630475661,42.33377630475661 0 0,0 -0.7045742576377596,-0.18608446521790906 l 5.624980641142737 -20.578863044594183" fill="red" stroke="none" /><path d="M 91.07499286063937 119.00905698771935 l -14.426544934057796 30.726587722040087 a54.94478445615192,54.94478445615192 0 0,0 -0.8526575816055773,-0.4093274550865851 l 14.953315183663616 -30.473705990453936" fill="red" stroke="none" /><line stroke="#e1ed5e" stroke-width="0.3" x1="58.666819895761336" x2="56.23545636021788" y1="174.27360380694188" y2="178.64263932499728" /><path d="M 58.180547188652646 175.14741091055294 a86.0,86.0 0 0,1 -31.652253787137756,-30.449443065178592" fill="none" id="id32" stroke="none" /><text fill="#e1ed5e" style="font-size:6.75px; font-family:Arial;" text-anchor="middle"><textPath startOffset="22.20632615414155" xlink:href="#id32">August</textPath></text><path d="M 89.1626897886671 117.98757091392108 l -19.137394021261972 31.763899468811157 a58.083489040134495,58.083489040134495 0 0,0 -0.8519487030888193,-0.5233364768209973 l 19.6813219242831 -31.429774525161783" fill="red" stroke="none" /><path d="M 83.06392112726016 112.41649034213515 l -29.87720671271004 21.904128540370085 a58.04643475514292,58.04643475514292 0 0,0 -0.583837142897002,-0.8108987276443755 l 30.249823647982648 -21.386596207274568" fill="red" stroke="none" /><line stroke="#e1ed5e" stroke-width="0.3" x1="26.63291911575756" x2="22.317208475507996" y1="142.92168965132927" y2="145.44649492493687" /><path d="M 25.769776987707644 143.4266507060508 a86.0,86.0 0 0,1 -11.730757126820373,-40.83630448921669" fill="none" id="id33" stroke="none" /><text fill="#e1ed5e" style="font-size:6.75px; font-family:Arial;" text-anchor="middle"><textPath startOffset="21.46611528233685" xlink:href="#id33">September</textPath></text><path d="M 81.87401531095188 110.60418214915194 l -24.752173561673512 14.480678514199525 a49.67682245749708,49.67682245749708 0 0,0 -0.42544177887969564,-0.7417936020710216 l 24.997767336705586 -14.052465066270196" fill="red" stroke="none" /><path d="M 79.86692584326677 105.97154293290107 l -17.190687145394104 5.098820256441565 a38.930914436757455,38.930914436757455 0 0,0 -0.18502818635930784,-0.6441073901343609 l 17.275907968639515 -4.802155390802608" fill="red" stroke="none" /><path d="M 79.50377843672027 104.57218783832718 l -25.018711568642896 5.581040798744185 a46.63364868590098,46.63364868590098 0 0,0 -0.16802761217168657,-0.7849690647936938 l 25.111073219539023 -5.149557914534327" fill="red" stroke="none" /><line stroke="#e1ed5e" stroke-width="0.3" x1="15.007084014347285" x2="10.007500721073583" y1="101.09737516637583" y2="101.16192664675087" /><path d="M 14.007167355692545 101.11028546245083 a86.0,86.0 0 0,1 10.666146001902534,-42.60595125391555" fill="none" id="id34" stroke="none" /><text fill="#e1ed5e" style="font-size:6.75px; font-family:Arial;" text-anchor="middle"><textPath startOffset="22.20632615414155" xlink:href="#id34">October</textPath></text><line stroke="#e1ed5e" stroke-width="0.3" x1="26.266209847984243" x2="21.928928074336255" y1="57.711370442889674" y2="55.22380399835377" /><path d="M 25.398753493254645 57.213857153982495 a86.0,86.0 0 0,1 29.58750427330803,-30.492523968695096" fill="none" id="id35" stroke="none" /><text fill="#e1ed5e" style="font-size:6.75px; font-family:Arial;" text-anchor="middle"><textPath startOffset="21.46611528233685" xlink:href="#id35">November</textPath></text><path d="M 87.80319425747018 82.90503203632743 l -16.627598769762574 -23.305140237720526 a49.62877228153576,49.62877228153576 0 0,0 0.6996920977741106,-0.4901790288670108 l 16.223975532404804 23.58790410935148" fill="red" stroke="none" /><line stroke="#e1ed5e" stroke-width="0.3" x1="56.76296977257108" x2="54.21961505331056" y1="26.818313649435495" y2="22.513508569990535" /><path d="M 56.25429882871898 25.957352633546506 a86.0,86.0 0 0,1 42.26535254187918,-11.944610805530505" fill="none" id="id36" stroke="none" /><text fill="#e1ed5e" style="font-size:6.75px; font-family:Arial;" text-anchor="middle"><textPath startOffset="22.20632615414155" xlink:href="#id36">December</textPath></text><path d="M 93.59665428221793 80.00007090966166 l -9.590570717519729 -29.95476782607753 a52.45261773210549,52.45261773210549 0 0,0 0.8622576609874009,-0.2679076525240047 l 9.073527683821599 30.11541561348406" fill="red" stroke="none" /></svg>